<svg xmlns="http://www.w3.org/2000/svg" width="512" height="512" viewBox="0 0 512 512" version="1.1">
	<path d="M 12 32.547 C 6.124 35.126, 5.047 37.374, 5.022 47.119 C 4.980 63.306, 9.358 80.811, 17.480 96.933 C 30.566 122.911, 57.566 149.769, 89.094 168.169 L 99.941 174.500 99.970 192.731 L 100 210.962 97.250 211.625 C 91.231 213.076, 82.659 218.356, 76.720 224.271 C 66.382 234.566, 62 245.360, 62 260.529 C 62 281.896, 74.369 299.768, 94.637 307.686 C 100.624 310.025, 102.904 310.364, 112.500 310.341 C 121.235 310.320, 124.719 309.870, 129.419 308.153 C 137.578 305.173, 144.064 300.805, 150.046 294.259 C 164.940 277.963, 167.515 254.998, 156.729 234.669 C 151.718 225.224, 138.703 214.613, 128.890 211.970 L 125 210.923 125 198.354 C 125 186.769, 125.137 185.844, 126.750 186.526 C 140.007 192.134, 174.041 201.469, 192 204.423 C 204.393 206.462, 227.156 208.974, 233.500 209.004 C 236.250 209.017, 239.512 209.299, 240.750 209.630 L 243 210.233 243 237.499 L 243 264.764 234.550 267.399 C 213.733 273.889, 195.086 294.185, 189.896 316 C 188.051 323.754, 188.262 340.105, 190.309 348 C 196.224 370.815, 214.789 389.989, 237.250 396.480 L 243 398.142 243 408.413 L 243 418.683 239.117 419.847 C 220.458 425.437, 205.050 446.592, 205.012 466.673 C 205.002 471.856, 205.413 473.337, 207.573 475.904 C 212.568 481.841, 222.360 481.926, 227.282 476.076 C 229.001 474.034, 229.877 471.451, 230.334 467.081 C 231.323 457.621, 236.219 449.460, 242.972 446.014 C 260.679 436.981, 279.589 447.206, 281.650 466.929 C 282.124 471.457, 282.983 474.015, 284.727 476.087 C 289.644 481.931, 299.436 481.836, 304.436 475.894 C 306.586 473.338, 306.998 471.850, 306.988 466.673 C 306.950 446.626, 291.510 425.428, 272.883 419.847 L 269 418.683 269 408.413 L 269 398.142 274.750 396.480 C 297.211 389.989, 315.776 370.815, 321.691 348 C 323.738 340.105, 323.949 323.754, 322.104 316 C 316.914 294.185, 298.267 273.889, 277.450 267.399 L 269 264.764 269 237.499 L 269 210.233 271.250 209.630 C 272.488 209.299, 275.750 209.017, 278.500 209.004 C 284.844 208.974, 307.607 206.462, 320 204.423 C 337.959 201.469, 371.993 192.134, 385.250 186.526 C 386.863 185.844, 387 186.763, 387 198.235 L 387 210.683 383.117 211.847 C 372.954 214.892, 360.233 225.318, 355.271 234.669 C 340.013 263.426, 352.561 297.190, 382.581 308.153 C 387.281 309.870, 390.765 310.320, 399.500 310.341 C 409.096 310.364, 411.376 310.025, 417.363 307.686 C 437.631 299.768, 450 281.896, 450 260.529 C 450 245.360, 445.618 234.566, 435.280 224.271 C 429.341 218.356, 420.769 213.076, 414.750 211.625 L 412 210.962 412 192.620 L 412 174.279 418.169 170.991 C 427.862 165.824, 443.607 154.932, 454.220 146.051 C 488.029 117.759, 507 82.161, 507 47.015 C 507 39.211, 506.749 38.021, 504.618 35.721 C 499.086 29.753, 488.769 30.236, 484.442 36.667 C 482.792 39.119, 482.162 42.050, 481.646 49.667 C 479.784 77.189, 467.568 100.976, 444.591 121.823 C 412.303 151.119, 355.833 173.634, 294.500 181.666 C 273.242 184.451, 233.717 184.180, 213.500 181.111 C 171.629 174.757, 137.499 164.361, 105.293 148.151 C 94.383 142.660, 75.152 129.580, 66.637 121.860 C 52.541 109.078, 40.933 91.948, 35.427 75.804 C 32.417 66.981, 30.001 53.773, 29.996 46.119 C 29.992 40.165, 27.711 34.986, 24.285 33.153 C 20.711 31.240, 15.558 30.986, 12 32.547 M 108.344 235.134 C 96.563 237.202, 88.205 246.477, 87.200 258.599 C 86.838 262.965, 87.287 265.017, 89.762 270.305 C 94.288 279.976, 102.286 285.143, 112.733 285.143 C 123.213 285.143, 133.085 278.067, 136.472 268.128 C 142.646 250.008, 127.151 231.832, 108.344 235.134 M 394.673 235.237 C 379.667 237.832, 370.545 253.504, 375.528 268.128 C 381.197 284.765, 401.336 290.371, 415.800 279.339 C 420.007 276.130, 424.998 265.971, 424.999 260.616 C 425.002 244.609, 410.528 232.496, 394.673 235.237 M 249 290.132 C 225.009 294.141, 209.199 318.378, 215.395 341.650 C 218.626 353.786, 226.213 363.136, 237.547 368.948 C 243.369 371.935, 245.462 372.454, 253.159 372.822 C 263.286 373.306, 268.928 372.094, 276.699 367.764 C 300.862 354.299, 305.123 320.644, 285.128 301.194 C 276.023 292.337, 261.822 287.989, 249 290.132" stroke="none" fill="#f0bb40" fill-rule="evenodd"/>
</svg>