<svg xmlns="http://www.w3.org/2000/svg" width="512" height="512" viewBox="0 0 512 512" version="1.1">
	<path d="M 133 1.829 C 125.641 4.566, 122.796 6.484, 116.860 12.707 C 104.582 25.581, 98.656 44.640, 101.019 63.655 C 103.483 83.480, 110.891 97.754, 127.250 114.199 L 138 125.006 138 144.964 L 138 164.923 133.756 166.066 C 127.318 167.799, 122.928 170.390, 118.334 175.167 C 111.760 182.004, 109.558 187.164, 109.150 196.690 C 108.702 207.150, 110.651 213.283, 116.483 219.770 L 120.826 224.600 116.558 227.300 C 109.893 231.517, 102.215 240.319, 98.728 247.741 C 95.958 253.637, 95.503 255.795, 95.167 264.634 C 94.904 271.560, 95.239 276.328, 96.226 279.695 L 97.670 284.622 91.096 286.916 C 65.150 295.971, 48.899 324.963, 49.022 361.974 C 49.070 376.680, 55.489 397.229, 67.928 422.500 C 81.306 449.680, 98.026 474.506, 114.921 492.275 C 123.818 501.632, 135.956 511, 139.184 511 C 145.984 511, 172.668 486.810, 186.831 467.806 C 207.940 439.483, 224.893 407.201, 231.620 382.521 C 235.084 369.811, 235.670 358.709, 233.551 345.912 C 230.420 326.995, 223.891 314.105, 211.172 301.729 C 204.867 295.593, 201.361 293.102, 194.518 289.895 C 187.963 286.824, 185.995 285.457, 186.443 284.288 C 188.438 279.089, 189.185 272.834, 188.835 264.258 C 188.493 255.873, 187.991 253.549, 185.267 247.741 C 181.795 240.338, 173.908 231.237, 167.290 226.996 L 163.079 224.298 166.133 221.399 C 167.812 219.805, 170.382 216.250, 171.842 213.500 C 174.207 209.050, 174.499 207.401, 174.499 198.500 C 174.500 189.974, 174.156 187.837, 172.166 184 C 167.549 175.097, 159.583 168.580, 150.244 166.066 L 146 164.923 145.968 142.711 C 145.945 126.783, 145.592 120.074, 144.718 118.996 C 144.048 118.168, 140.501 114.884, 136.835 111.698 C 120.652 97.632, 110.815 78.986, 109.405 59.706 C 106.991 26.688, 132.811 -0.184, 156 11.212 C 166.070 16.161, 174.700 27.081, 178.519 39.703 C 179.317 42.342, 180.658 51.048, 181.498 59.051 C 185.123 93.546, 194.697 108.114, 213.821 108.234 C 221.799 108.284, 225 106.928, 225 103.500 C 225 100.173, 222.203 98.952, 216.209 99.662 C 212.175 100.139, 210.227 99.804, 206.470 97.985 C 197.292 93.543, 192.893 82.708, 189.983 57.378 C 187.792 38.310, 187.003 34.941, 182.763 26.536 C 179.537 20.139, 169.716 9.150, 164 5.539 C 155.291 0.038, 142.068 -1.544, 133 1.829 M 362.286 2.402 C 340.597 9.433, 325.666 37.022, 328.947 64.006 C 331.606 85.871, 339.835 101.256, 357.871 118.084 L 366 125.668 366 146.334 L 366 167 363.750 167.010 C 360.118 167.026, 350.811 171.819, 346.664 175.809 C 340.518 181.722, 337.733 188.151, 337.210 197.633 C 336.637 208.029, 338.577 214.201, 344.483 220.770 L 348.826 225.600 344.452 228.367 C 335.560 233.993, 327.542 244.607, 324.423 254.881 C 322.620 260.822, 322.602 275.358, 324.389 281.298 L 325.778 285.913 320.639 287.594 C 300.346 294.230, 286.838 310.416, 280.395 335.815 C 273.402 363.384, 277.634 386.975, 296.268 424.289 C 314.550 460.899, 343.466 498.448, 362.118 509.798 C 364.108 511.009, 366.626 512, 367.713 512 C 371.216 512, 382.239 504.002, 392.351 494.124 C 429.709 457.627, 463 395.421, 463 362.111 C 463 346.615, 458.074 328.468, 450.468 315.948 C 445.416 307.630, 432.810 296.044, 424.041 291.657 C 420.020 289.646, 416.117 288, 415.366 288 C 413.660 288, 413.661 287.975, 415.609 281.274 C 416.770 277.278, 417.110 272.929, 416.832 265.620 C 416.497 256.808, 416.039 254.631, 413.289 248.777 C 409.766 241.278, 402.913 233.363, 395.767 228.537 L 391.034 225.342 394.110 222.421 C 402.260 214.683, 405.390 199.277, 401.103 188 C 398.127 180.171, 391.891 173.336, 384.558 169.868 C 381.226 168.291, 377.488 167.001, 376.250 167.001 L 374 167 374 144.076 L 374 121.151 366.842 114.826 C 353.200 102.769, 343.667 88.571, 339.433 74 C 336.485 63.856, 336.873 47.729, 340.298 38.056 C 351.260 7.102, 380.093 0.110, 398.106 24.039 C 405.042 33.253, 407.493 40.983, 409.496 59.961 C 411.791 81.706, 415.095 92.078, 422.475 100.699 C 427.624 106.715, 433.472 109.219, 442.505 109.277 C 450.589 109.330, 453 108.215, 453 104.427 C 453 101.199, 450.464 100.097, 444.462 100.716 C 437.049 101.481, 430.957 98.579, 427.053 92.423 C 422.315 84.951, 420.062 76.480, 417.998 58.378 C 416.940 49.095, 415.399 39.250, 414.573 36.500 C 410.900 24.273, 399.147 10.197, 388.022 4.701 C 382.720 2.081, 380.177 1.458, 374.022 1.268 C 369.727 1.135, 364.692 1.622, 362.286 2.402 M 130.882 176.793 C 120.770 182.075, 115.170 193.710, 117.874 203.820 C 119.483 209.836, 122.372 214.419, 126.575 217.625 C 129.776 220.067, 130.607 220.207, 141.857 220.207 C 155.461 220.207, 157.149 219.551, 162.111 212.338 C 170.765 199.760, 166.512 183.420, 152.805 176.590 C 145.528 172.964, 138.080 173.033, 130.882 176.793 M 361.086 176.664 C 347.820 181.510, 341.426 198.114, 347.922 210.848 C 349.949 214.820, 356.149 220.941, 358.285 221.078 C 366.274 221.588, 382.091 221.022, 383.685 220.168 C 387.474 218.141, 391.865 212.105, 393.634 206.491 C 399.549 187.727, 379.954 169.771, 361.086 176.664 M 136.357 229.079 C 114.158 231.999, 98.211 256.407, 104.719 277.500 C 106.550 283.435, 106.614 283.503, 110.535 283.738 C 118.390 284.210, 125.627 286.252, 132.575 289.956 C 138.981 293.372, 139.833 293.590, 141.575 292.265 C 143.698 290.651, 150.827 287.337, 155.500 285.792 C 157.150 285.246, 162.731 284.507, 167.903 284.150 L 177.306 283.500 178.764 279.500 C 180.835 273.816, 180.789 261.616, 178.672 255.395 C 172.482 237.201, 155.396 226.574, 136.357 229.079 M 365 230.088 C 347.294 233.024, 335.123 244.810, 331.987 262.054 C 330.721 269.016, 331.290 276.365, 333.506 281.668 C 334.808 284.785, 335.208 285.001, 339.699 285.012 C 346.365 285.028, 353.897 287.210, 361.262 291.259 L 367.516 294.696 371.067 292.339 C 377.171 288.289, 385.899 285.746, 395.903 285.104 L 405.306 284.500 406.775 280.500 C 408.975 274.507, 408.734 261.613, 406.304 255.406 C 401.721 243.695, 393.518 235.670, 382.500 232.115 C 374.845 229.646, 370.617 229.156, 365 230.088 M 103.500 292.986 C 90.677 294.459, 79.217 301.652, 71.414 313.123 C 62.571 326.124, 59.190 337.379, 58.383 356.500 C 57.890 368.165, 58.087 370.475, 60.305 379 C 71.087 420.445, 109.225 480.825, 136.586 499.766 L 139.672 501.902 145.086 498.307 C 152.060 493.677, 168.695 476.889, 177.101 466 C 200.192 436.086, 219.417 399.099, 224.563 374.685 C 229.195 352.713, 222.599 326.884, 208.320 311.075 C 191.150 292.066, 166.013 287.295, 147 299.436 C 143.975 301.368, 140.477 302.960, 139.226 302.974 C 137.975 302.988, 134.657 301.421, 131.852 299.492 C 124.134 294.183, 113.777 291.806, 103.500 292.986 M 335 293.739 C 333.625 293.884, 330.025 294.505, 327 295.120 C 302.738 300.048, 286 327.226, 286 361.694 C 286 375.396, 289.900 389.543, 299.729 411.500 C 314.977 445.559, 343.889 486.215, 361.795 498.775 L 367.740 502.945 372.120 500.035 C 402.928 479.563, 445.821 412.527, 453.005 373.623 C 454.758 364.126, 453.785 348.608, 450.800 338.487 C 443.024 312.117, 421.257 293.899, 397.500 293.879 C 388.756 293.871, 382.811 295.676, 373.953 301.029 L 367.017 305.219 362.249 302.160 C 352.738 296.056, 342.638 292.935, 335 293.739 M 153 322.358 C 149.975 323.045, 145.991 324.406, 144.147 325.382 C 140.871 327.117, 140.676 327.104, 135.647 324.833 C 131.313 322.874, 128.842 322.507, 120 322.504 C 109.936 322.500, 109.238 322.642, 103.179 325.927 C 88.646 333.807, 80 350.992, 80 372 C 80 391.146, 90.623 416.666, 110.106 444.323 C 121.120 459.960, 134.781 473, 140.147 473 C 144.083 473, 150.828 468.002, 160.523 457.901 C 179.175 438.468, 198.704 404.949, 202.879 385.201 C 205.464 372.980, 203.784 358.762, 198.417 347.417 C 189.638 328.859, 170.609 318.360, 153 322.358 M 334.912 325.287 C 318.655 332.147, 309.375 347.626, 308.256 369.746 C 307.607 382.589, 308.888 389.341, 314.651 403.448 C 326.440 432.307, 347.227 461.544, 363.683 472.414 C 368.783 475.783, 369.984 475.494, 378.279 468.908 C 398.947 452.498, 424.643 412.581, 430.482 387.815 C 433.547 374.812, 431.926 359.894, 426.158 348.034 C 422.200 339.895, 413.088 330.661, 405.167 326.762 C 398.960 323.706, 397.878 323.500, 388.021 323.500 C 378.587 323.500, 377.032 323.764, 372.974 326.054 L 368.448 328.609 362.974 326.111 C 354.888 322.422, 342.559 322.060, 334.912 325.287 M 114.897 330.887 C 106.908 332.551, 98.268 339.634, 93.985 348.029 C 88.331 359.112, 87.034 377.020, 90.981 389.500 C 93.949 398.882, 104.585 420.668, 110.885 430.268 C 123.727 449.836, 138.115 465.093, 141.830 463.080 C 142.749 462.582, 146.352 459.587, 149.838 456.424 C 169.825 438.287, 192.931 398.018, 195.467 376.900 C 196.355 369.509, 193.846 357.367, 189.902 349.967 C 184.147 339.170, 173.676 331.868, 162 330.510 C 156.008 329.813, 150.099 331.369, 145.030 334.979 C 141.277 337.651, 139.934 337.542, 133.735 334.058 C 128.081 330.880, 120.806 329.656, 114.897 330.887 M 344.500 331.994 C 331.501 334.155, 321.601 344.789, 317.962 360.501 C 315.977 369.072, 316.421 382.569, 318.950 390.500 C 326.353 413.719, 348.731 449.452, 363.394 461.466 C 367.987 465.230, 367.996 465.233, 370.746 463.447 C 377.669 458.951, 383.911 452.617, 392.009 441.869 C 409.155 419.113, 421.428 394.330, 423.578 378.125 C 424.467 371.423, 421.613 357.946, 417.781 350.748 C 411.552 339.048, 400.407 331.941, 388.102 331.826 C 381.846 331.767, 380.434 332.144, 374.492 335.467 L 367.862 339.175 364.181 336.779 C 357.382 332.355, 351.271 330.869, 344.500 331.994" stroke="none" fill="#fdd777" fill-rule="evenodd"/>
</svg>